<svg width="258" height="72" viewBox="0 0 258 72" fill="none" xmlns="http://www.w3.org/2000/svg">
<path d="M91.856 46.616H78.512L76.304 53H69.248L81.296 19.448H89.12L101.168 53H94.064L91.856 46.616ZM90.032 41.24L85.184 27.224L80.336 41.24H90.032ZM130.775 26.408V53H124.007V49.64C123.143 50.792 122.007 51.704 120.599 52.376C119.223 53.016 117.719 53.336 116.087 53.336C114.007 53.336 112.167 52.904 110.567 52.04C108.967 51.144 107.703 49.848 106.775 48.152C105.879 46.424 105.431 44.376 105.431 42.008V26.408H112.151V41.048C112.151 43.16 112.679 44.792 113.735 45.944C114.791 47.064 116.231 47.624 118.055 47.624C119.911 47.624 121.367 47.064 122.423 45.944C123.479 44.792 124.007 43.16 124.007 41.048V26.408H130.775ZM135.678 39.704C135.678 36.952 136.238 34.552 137.358 32.504C138.478 30.424 140.03 28.824 142.014 27.704C143.998 26.552 146.27 25.976 148.83 25.976C152.126 25.976 154.846 26.808 156.99 28.472C159.166 30.104 160.622 32.408 161.358 35.384H154.11C153.726 34.232 153.07 33.336 152.142 32.696C151.246 32.024 150.126 31.688 148.782 31.688C146.862 31.688 145.342 32.392 144.222 33.8C143.102 35.176 142.542 37.144 142.542 39.704C142.542 42.232 143.102 44.2 144.222 45.608C145.342 46.984 146.862 47.672 148.782 47.672C151.502 47.672 153.278 46.456 154.11 44.024H161.358C160.622 46.904 159.166 49.192 156.99 50.888C154.814 52.584 152.094 53.432 148.83 53.432C146.27 53.432 143.998 52.872 142.014 51.752C140.03 50.6 138.478 49 137.358 46.952C136.238 44.872 135.678 42.456 135.678 39.704ZM174.105 31.928V44.792C174.105 45.688 174.313 46.344 174.729 46.76C175.177 47.144 175.913 47.336 176.937 47.336H180.057V53H175.833C170.169 53 167.337 50.248 167.337 44.744V31.928H164.169V26.408H167.337V19.832H174.105V26.408H180.057V31.928H174.105Z" fill="white"/>
<path d="M191.61 19.496V53H184.89V19.496H191.61ZM210.058 53.432C207.498 53.432 205.194 52.872 203.146 51.752C201.098 50.6 199.482 48.984 198.298 46.904C197.146 44.824 196.57 42.424 196.57 39.704C196.57 36.984 197.162 34.584 198.346 32.504C199.562 30.424 201.21 28.824 203.29 27.704C205.37 26.552 207.69 25.976 210.25 25.976C212.81 25.976 215.13 26.552 217.21 27.704C219.29 28.824 220.922 30.424 222.106 32.504C223.322 34.584 223.93 36.984 223.93 39.704C223.93 42.424 223.306 44.824 222.057 46.904C220.842 48.984 219.178 50.6 217.066 51.752C214.986 52.872 212.65 53.432 210.058 53.432ZM210.058 47.576C211.274 47.576 212.41 47.288 213.466 46.712C214.554 46.104 215.418 45.208 216.058 44.024C216.698 42.84 217.018 41.4 217.018 39.704C217.018 37.176 216.346 35.24 215.002 33.896C213.69 32.52 212.074 31.832 210.154 31.832C208.234 31.832 206.618 32.52 205.306 33.896C204.026 35.24 203.386 37.176 203.386 39.704C203.386 42.232 204.01 44.184 205.258 45.56C206.538 46.904 208.138 47.576 210.058 47.576ZM243.595 26.024C246.763 26.024 249.323 27.032 251.275 29.048C253.227 31.032 254.203 33.816 254.203 37.4V53H247.483V38.312C247.483 36.2 246.955 34.584 245.899 33.464C244.843 32.312 243.403 31.736 241.579 31.736C239.723 31.736 238.251 32.312 237.163 33.464C236.107 34.584 235.579 36.2 235.579 38.312V53H228.859V26.408H235.579V29.72C236.475 28.568 237.611 27.672 238.987 27.032C240.395 26.36 241.931 26.024 243.595 26.024Z" fill="#03AC0E"/>
<rect y="11.001" width="9.97973" height="50.9492" rx="4.98987" fill="#03AC0E"/>
<rect x="30.9893" y="51.9702" width="9.97973" height="30.9897" rx="4.98987" transform="rotate(90 30.9893 51.9702)" fill="#03AC0E"/>
<rect x="21.0107" y="42.5161" width="9.97973" height="19.4342" rx="4.98987" fill="#03AC0E"/>
<rect x="52" y="61.9492" width="9.97973" height="50.9492" rx="4.98987" transform="rotate(-180 52 61.9492)" fill="#03AC0E"/>
<rect x="21.0107" y="20.98" width="9.97973" height="30.9897" rx="4.98987" transform="rotate(-90 21.0107 20.98)" fill="#03AC0E"/>
<rect x="30.9893" y="30.4341" width="9.97973" height="19.4342" rx="4.98987" transform="rotate(-180 30.9893 30.4341)" fill="#03AC0E"/>
</svg>
