<svg width="178" height="45" viewBox="0 0 178 45" fill="none" xmlns="http://www.w3.org/2000/svg">
<path d="M73.91 29.01H65.57L64.19 33H59.78L67.31 12.03H72.2L79.73 33H75.29L73.91 29.01ZM72.77 25.65L69.74 16.89L66.71 25.65H72.77ZM98.2346 16.38V33H94.0046V30.9C93.4646 31.62 92.7546 32.19 91.8746 32.61C91.0146 33.01 90.0746 33.21 89.0546 33.21C87.7546 33.21 86.6046 32.94 85.6046 32.4C84.6046 31.84 83.8146 31.03 83.2346 29.97C82.6746 28.89 82.3946 27.61 82.3946 26.13V16.38H86.5946V25.53C86.5946 26.85 86.9246 27.87 87.5846 28.59C88.2446 29.29 89.1446 29.64 90.2846 29.64C91.4446 29.64 92.3546 29.29 93.0146 28.59C93.6746 27.87 94.0046 26.85 94.0046 25.53V16.38H98.2346ZM101.299 24.69C101.299 22.97 101.649 21.47 102.349 20.19C103.049 18.89 104.019 17.89 105.259 17.19C106.499 16.47 107.919 16.11 109.519 16.11C111.579 16.11 113.279 16.63 114.619 17.67C115.979 18.69 116.889 20.13 117.349 21.99H112.819C112.579 21.27 112.169 20.71 111.589 20.31C111.029 19.89 110.329 19.68 109.489 19.68C108.289 19.68 107.339 20.12 106.639 21C105.939 21.86 105.589 23.09 105.589 24.69C105.589 26.27 105.939 27.5 106.639 28.38C107.339 29.24 108.289 29.67 109.489 29.67C111.189 29.67 112.299 28.91 112.819 27.39H117.349C116.889 29.19 115.979 30.62 114.619 31.68C113.259 32.74 111.559 33.27 109.519 33.27C107.919 33.27 106.499 32.92 105.259 32.22C104.019 31.5 103.049 30.5 102.349 29.22C101.649 27.92 101.299 26.41 101.299 24.69ZM125.315 19.83V27.87C125.315 28.43 125.445 28.84 125.705 29.1C125.985 29.34 126.445 29.46 127.085 29.46H129.035V33H126.395C122.855 33 121.085 31.28 121.085 27.84V19.83H119.105V16.38H121.085V12.27H125.315V16.38H129.035V19.83H125.315Z" fill="black"/>
<path d="M136.256 12.06V33H132.056V12.06H136.256ZM147.786 33.27C146.186 33.27 144.746 32.92 143.466 32.22C142.186 31.5 141.176 30.49 140.436 29.19C139.716 27.89 139.356 26.39 139.356 24.69C139.356 22.99 139.726 21.49 140.466 20.19C141.226 18.89 142.256 17.89 143.556 17.19C144.856 16.47 146.306 16.11 147.906 16.11C149.506 16.11 150.956 16.47 152.256 17.19C153.556 17.89 154.576 18.89 155.316 20.19C156.076 21.49 156.456 22.99 156.456 24.69C156.456 26.39 156.066 27.89 155.286 29.19C154.526 30.49 153.486 31.5 152.166 32.22C150.866 32.92 149.406 33.27 147.786 33.27ZM147.786 29.61C148.546 29.61 149.256 29.43 149.916 29.07C150.596 28.69 151.136 28.13 151.536 27.39C151.936 26.65 152.136 25.75 152.136 24.69C152.136 23.11 151.716 21.9 150.876 21.06C150.056 20.2 149.046 19.77 147.846 19.77C146.646 19.77 145.636 20.2 144.816 21.06C144.016 21.9 143.616 23.11 143.616 24.69C143.616 26.27 144.006 27.49 144.786 28.35C145.586 29.19 146.586 29.61 147.786 29.61ZM168.747 16.14C170.727 16.14 172.327 16.77 173.547 18.03C174.767 19.27 175.377 21.01 175.377 23.25V33H171.177V23.82C171.177 22.5 170.847 21.49 170.187 20.79C169.527 20.07 168.627 19.71 167.487 19.71C166.327 19.71 165.407 20.07 164.727 20.79C164.067 21.49 163.737 22.5 163.737 23.82V33H159.537V16.38H163.737V18.45C164.297 17.73 165.007 17.17 165.867 16.77C166.747 16.35 167.707 16.14 168.747 16.14Z" fill="#03AC0E"/>
<rect y="1" width="8.0329" height="41.0101" rx="4.01645" fill="#03AC0E"/>
<rect x="24.9443" y="33.9772" width="8.0329" height="24.9443" rx="4.01645" transform="rotate(90 24.9443 33.9772)" fill="#03AC0E"/>
<rect x="16.9116" y="26.3671" width="8.0329" height="15.643" rx="4.01645" fill="#03AC0E"/>
<rect x="41.856" y="42.0101" width="8.0329" height="41.0101" rx="4.01645" transform="rotate(-180 41.856 42.0101)" fill="#03AC0E"/>
<rect x="16.9116" y="9.0329" width="8.0329" height="24.9443" rx="4.01645" transform="rotate(-90 16.9116 9.0329)" fill="#03AC0E"/>
<rect x="24.9443" y="16.643" width="8.0329" height="15.643" rx="4.01645" transform="rotate(-180 24.9443 16.643)" fill="#03AC0E"/>
</svg>
